<svg xmlns="http://www.w3.org/2000/svg" width="50px" height="39px" viewBox="0 0 203.6794 203.15108">
  <path d="M0 203.15107h203.6794V0H0v203.15107z" fill="#ed1d24"/>
  <path d="M149.94979 27.71333h13.04016v64.17615h-13.04016V27.71333zM68.44761 70.56638c0 12.03953-9.18174 21.32534-21.18925 21.32534-11.9835 0-21.38938-9.2858-21.38938-21.32534v-42.8508h12.71995v42.8508c0 4.86704 3.86642 8.7895 8.66943 8.7895 4.82702 0 8.66141-3.92246 8.66141-8.7895v-42.8508h12.52784v42.8508zM128.70374 175.48384h-42.8588v-64.15213h12.99212v51.10397h29.86668v13.04816zM128.70374 91.88467h-13.02415l-16.84253-36.767v36.767H85.84493V27.70853h12.99213l16.84253 36.71096V27.70853h13.02415v64.17614zM47.24632 111.33428c-11.96749 0-21.38137 9.59-21.38137 21.19726v21.7576c0 11.45517 9.41388 21.19727 21.38137 21.19727 1.4489 0 2.85779-.1521 4.20263-.40025l4.4668 13.39237h12.52783l-5.93171-19.27605c3.47417-3.97049 5.9317-9.37387 5.9317-14.91333v-21.75761c0-11.60726-9.18173-21.19726-21.19725-21.19726m8.66942 42.95487c0 4.21864-3.8344 8.1491-8.66942 8.1491-4.795 0-8.66142-3.93046-8.66142-8.1491v-21.75761c0-4.795 3.86642-8.6454 8.66142-8.6454 4.83502 0 8.66942 3.8504 8.66942 8.6454v21.7576zM156.44749 111.33428c-11.9995 0-21.20526 9.59-21.20526 21.19726v21.7576c0 11.45517 9.20575 21.19727 21.20526 21.19727 11.9755 0 21.19726-9.7421 21.19726-21.19726v-21.75761c0-11.60726-9.22177-21.19726-21.19726-21.19726m8.69344 42.95487c0 4.21864-3.92246 8.1491-8.69344 8.1491-4.795 0-8.69344-3.93046-8.69344-8.1491v-21.75761c0-4.795 3.89844-8.6454 8.69344-8.6454 4.77098 0 8.69344 3.8504 8.69344 8.6454v21.7576z" fill="#fff"/>
</svg>
